<svg width="123" height="41" viewBox="0 0 123 41" fill="none" xmlns="http://www.w3.org/2000/svg">
<path d="M15.8157 0.485352C16.2483 0.415897 16.651 0.474812 16.9583 0.548828L17.0842 0.582031C17.3801 0.662701 17.7283 0.776619 18.0725 0.952148L18.22 1.03125C20.1954 2.15046 21.7464 3.64031 22.7415 5.54395L59.4534 5.98145L58.3352 7.86621C53.3568 16.2567 44.2803 21.3543 34.5247 21.2383L45.0706 21.3643C41.7361 26.9839 36.3536 30.9564 30.1985 32.5703C30.3608 32.8389 30.4724 33.1391 30.5149 33.4531L34.2639 33.498L32.2278 35.4668C31.8834 35.7998 31.5291 36.1116 31.1682 36.4043L31.1956 36.4297L30.7327 36.7441C30.2648 37.0972 29.7855 37.4187 29.2961 37.708C26.2648 39.6139 23.0081 40.3722 20.1731 40.5156C19.5627 40.5465 18.9667 40.5475 18.3928 40.5264C18.0679 40.5404 17.7406 40.5498 17.4114 40.5459C7.73059 40.4304 -0.0237564 32.4884 0.0910645 22.8076C0.174326 15.8166 4.33878 9.82978 10.2922 7.08594C9.79418 6.47108 9.38671 5.76702 9.13892 4.95117C9.01959 4.55794 8.93868 4.05127 9.06763 3.51562C9.19781 2.97541 9.51421 2.52102 9.97192 2.19043L10.0657 2.12598L10.1731 2.05957C10.716 1.7402 11.3337 1.65783 11.927 1.86328C12.4782 2.05431 12.8543 2.44158 13.0823 2.73242L13.176 2.84961C13.4763 3.22198 13.7997 3.57268 14.1418 3.91211C14.0102 3.63068 13.9081 3.30404 13.886 2.94238C13.8543 2.42062 13.9945 1.91039 14.303 1.45898L14.3674 1.36914L14.4407 1.27539C14.8149 0.821685 15.3022 0.567944 15.8157 0.485352ZM16.6965 1.80469C16.2099 1.67217 15.7149 1.65774 15.3762 2.11133C15.0314 2.57349 15.1189 3.06418 15.4065 3.52832C15.6197 3.87225 15.8784 4.17617 16.1526 4.46582C16.4715 4.80694 16.8144 5.12686 17.1409 5.46094C17.2093 5.53161 17.2777 5.60225 17.344 5.6748C18.1352 6.54081 18.6428 7.51244 18.7952 8.62988C18.755 8.64231 18.7102 8.67258 18.675 8.66406C18.1825 8.54401 16.2324 7.45768 15.8069 7.10449C15.017 6.4487 14.2227 5.79871 13.4797 5.09375C13.0118 4.64734 12.5627 4.18055 12.1526 3.67188L12.0491 3.54199C12.0026 3.48272 11.9522 3.42778 11.9006 3.37598C11.6004 3.05149 11.2106 2.87216 10.7454 3.17871C10.2447 3.50867 10.1936 4.00184 10.3528 4.52637C10.5908 5.31025 11.0224 5.98212 11.5842 6.57812C12.2306 7.26373 12.8536 7.9719 13.4993 8.6582C13.857 9.03851 13.8207 9.21991 13.2991 9.41309C12.3227 9.7747 11.3785 10.2258 10.9221 11.2695C10.7683 11.6215 10.638 11.9707 10.9309 12.167L15.6995 11.8936C16.3486 11.8566 16.5661 12.7473 15.9729 13.0137L13.8264 13.9775C13.5934 14.0821 13.3431 14.1436 13.0881 14.1582C12.3086 14.2027 11.5701 13.8097 11.1702 13.1416C10.1264 13.5682 9.07948 13.9883 8.03149 14.4043C7.37129 14.6664 6.68307 14.8709 6.05005 15.1865C5.00874 15.7058 4.94961 16.4893 5.7688 17.2412C6.27169 17.7024 6.48228 17.1275 6.86157 17.0449C6.85596 17.289 6.66704 17.3928 6.53149 17.5273C5.68694 18.3662 5.52866 19.2518 6.0686 20.1299C6.66827 21.1044 7.95016 21.6414 8.93579 21.1689C10.3732 20.4796 11.8131 20.5282 13.3118 20.8184C13.7484 20.903 13.9424 21.0999 14.0471 21.4912C14.4122 22.8562 14.4617 24.2113 13.9612 25.5566C13.8569 25.8368 13.7544 26.1186 13.6575 26.4014C13.3708 27.238 13.4952 27.4844 14.3372 27.792C14.4854 27.8461 14.7096 27.8082 14.6321 28.125C14.1175 30.2216 14.1736 31.3434 13.551 33.418C13.3519 34.0813 13.0671 34.7081 12.7375 35.3193C12.0643 36.5682 12.4126 37.1616 13.8381 37.207C13.7873 37.5845 13.6835 37.949 13.551 38.2246C16.1227 39.3756 23.177 40.2366 29.0627 36.2227C28.5822 35.7709 28.3685 35.5855 28.176 35.2324C28.0067 34.9218 27.8731 34.6507 28.4387 34.501C29.0102 34.3498 29.2871 33.9082 29.1379 33.4355L29.1643 33.4365C29.1283 33.3392 29.0757 33.2396 29.0022 33.1426C28.9386 33.0586 28.8785 32.9736 28.8225 32.8877C28.8193 32.8883 28.8159 32.888 28.8127 32.8887C27.9082 31.5379 27.9283 29.9534 27.6174 28.4492C27.5509 28.1268 27.6094 27.9794 27.9963 27.9121C28.7334 27.7839 29.0611 27.1752 28.7678 26.457C28.2903 25.2881 27.7668 24.1374 27.3665 22.9375C27.2716 22.6534 27.1469 22.4378 27.6409 22.415C28.7625 22.364 29.0225 21.9319 28.6213 20.8438C28.1434 19.5475 27.5589 18.2984 26.8967 17.085C26.7394 16.7971 26.2822 16.3883 27.1731 16.4551C27.8008 16.5021 28.1742 15.6868 27.8635 15.0449C27.4551 14.2013 26.8678 13.49 26.054 13.0098C25.719 12.8121 25.5429 12.6572 25.6594 12.2158C25.8121 11.637 25.5761 11.146 25.1038 10.7559C24.4763 10.2377 23.8112 9.78191 23.0198 9.57715C22.6354 9.47749 22.5308 9.27732 22.468 8.91406C22.2478 7.63939 21.8189 6.51413 21.2014 5.52539L21.2161 5.52637C20.9129 5.04705 20.5642 4.60081 20.1741 4.18457C20.1483 4.15671 20.1221 4.12915 20.0959 4.10156C20.0145 4.01678 19.9319 3.93278 19.8469 3.85059C19.1813 3.19923 18.4068 2.62639 17.5305 2.12988C17.2734 1.98424 16.983 1.88278 16.6965 1.80469Z" fill="#0F0F0F"/>
<path d="M71.0997 19.7925C69.8082 19.7925 68.7078 19.5883 67.7985 19.1797C66.8892 18.7712 66.1842 18.1914 65.6834 17.4402C65.2954 16.8582 65.038 16.1932 64.911 15.4452C64.8487 15.0778 65.1387 14.7575 65.511 14.7403L68.0833 14.6216C68.4263 14.6057 68.7165 14.8564 68.8194 15.1839C68.8879 15.402 68.9759 15.6006 69.0834 15.7797C69.2811 16.096 69.5446 16.3398 69.8741 16.5111C70.2167 16.6693 70.6384 16.7483 71.1392 16.7483C71.5346 16.7483 71.8706 16.7088 72.1474 16.6297C72.4241 16.5375 72.635 16.3991 72.7799 16.2146C72.9249 16.0301 72.9974 15.7995 72.9974 15.5227C72.9974 15.2723 72.9315 15.0549 72.7997 14.8704C72.6811 14.6727 72.4373 14.5014 72.0683 14.3565C71.7125 14.1983 71.1788 14.0468 70.4671 13.9018C69.1888 13.6382 68.1543 13.3351 67.3636 12.9925C66.5729 12.6367 65.9931 12.182 65.6241 11.6285C65.2683 11.075 65.0904 10.37 65.0904 9.5134C65.0904 8.64363 65.3144 7.87928 65.7624 7.22036C66.2105 6.56144 66.8563 6.04749 67.6997 5.67849C68.5431 5.3095 69.5578 5.125 70.7439 5.125C71.9958 5.125 73.0435 5.33585 73.8869 5.75756C74.7303 6.17927 75.3827 6.75912 75.8439 7.49711C76.2022 8.05447 76.4515 8.67948 76.5918 9.37214C76.6676 9.74636 76.3735 10.0802 75.992 10.096L73.5319 10.198C73.1692 10.213 72.8741 9.9295 72.7682 9.58229C72.7166 9.41337 72.6481 9.25862 72.5625 9.11805C72.378 8.81494 72.1276 8.58432 71.8113 8.42618C71.5082 8.25486 71.1392 8.1692 70.7043 8.1692C70.1508 8.1692 69.7226 8.28122 69.4194 8.50525C69.1163 8.72928 68.9648 9.0258 68.9648 9.39479C68.9648 9.68472 69.0373 9.92852 69.1822 10.1262C69.3404 10.3239 69.5908 10.4886 69.9334 10.6204C70.2892 10.7522 70.7702 10.8708 71.3764 10.9762C72.7602 11.2134 73.854 11.5363 74.6579 11.9448C75.4617 12.3533 76.0284 12.8409 76.3579 13.4076C76.7005 13.9743 76.8718 14.6266 76.8718 15.3646C76.8718 16.2739 76.6412 17.0646 76.18 17.7367C75.7319 18.3956 75.073 18.903 74.2032 19.2588C73.3466 19.6146 72.3121 19.7925 71.0997 19.7925Z" fill="#0F0F0F"/>
<path d="M79.4236 19.4762C79.0556 19.4762 78.7573 19.1779 78.7573 18.81V6.10757C78.7573 5.73959 79.0556 5.44128 79.4236 5.44128H81.9655C82.3334 5.44128 82.6317 5.73959 82.6317 6.10757V10.996L86.7213 5.70033C86.8474 5.53695 87.0422 5.44128 87.2486 5.44128H89.9391C90.495 5.44128 90.8065 6.08196 90.4631 6.51915L86.6863 11.3273C86.5081 11.5541 86.4961 11.8698 86.6565 12.1095L90.8926 18.4394C91.1888 18.8821 90.8715 19.4762 90.3388 19.4762H87.6572C87.4324 19.4762 87.2227 19.3629 87.0996 19.1747L83.8573 14.2181L82.6317 15.7204V18.81C82.6317 19.1779 82.3334 19.4762 81.9655 19.4762H79.4236Z" fill="#0F0F0F"/>
<path d="M93.0826 19.4762C92.621 19.4762 92.2992 19.0182 92.4558 18.584L97.0358 5.88157C97.1311 5.61738 97.3818 5.44128 97.6626 5.44128H101.135C101.416 5.44128 101.666 5.61738 101.761 5.88157L106.342 18.584C106.498 19.0182 106.176 19.4762 105.715 19.4762H103.186C102.901 19.4762 102.648 19.2951 102.556 19.0255L101.919 17.1634H96.8585L96.2219 19.0255C96.1298 19.2951 95.8764 19.4762 95.5915 19.4762H93.0826ZM97.8864 14.1588H100.911L99.4085 9.71107L97.8864 14.1588Z" fill="#0F0F0F"/>
<path d="M108.341 19.4762C107.973 19.4762 107.675 19.1779 107.675 18.81V6.10757C107.675 5.73959 107.973 5.44128 108.341 5.44128H110.883C111.251 5.44128 111.55 5.73959 111.55 6.10757V18.81C111.55 19.1779 111.251 19.4762 110.883 19.4762H108.341Z" fill="#0F0F0F"/>
<path d="M66.7254 35.8755C66.107 35.8755 65.6057 35.3742 65.6057 34.7558V23.2657C65.6057 22.6473 66.107 22.146 66.7254 22.146H68.2761C68.8945 22.146 69.3958 22.6473 69.3958 23.2657V35.0827L67.23 32.8395H74.2514C74.8698 32.8395 75.371 33.3408 75.371 33.9592V34.7558C75.371 35.3742 74.8698 35.8755 74.2514 35.8755H66.7254Z" fill="#0F0F0F"/>
<path d="M77.4715 35.8755C76.6958 35.8755 76.1551 35.1058 76.4182 34.376L80.5612 22.8859C80.7212 22.4419 81.1425 22.146 81.6145 22.146H84.3536C84.8256 22.146 85.2469 22.4419 85.4069 22.8859L89.5499 34.376C89.813 35.1058 89.2723 35.8755 88.4966 35.8755H87.0236C86.5448 35.8755 86.119 35.5711 85.9641 35.118L85.4496 33.613H80.4992L79.9847 35.118C79.8298 35.5711 79.404 35.8755 78.9252 35.8755H77.4715ZM81.5048 30.6737H84.4634L82.9937 26.3229L81.5048 30.6737Z" fill="#0F0F0F"/>
<path d="M92.2 35.8755C91.5816 35.8755 91.0803 35.3742 91.0803 34.7558V23.2657C91.0803 22.6473 91.5816 22.146 92.2 22.146H95.2618C95.744 22.146 96.172 22.4547 96.3242 22.9123L98.97 30.8671L101.616 22.9123C101.768 22.4547 102.196 22.146 102.678 22.146H105.74C106.358 22.146 106.86 22.6473 106.86 23.2657V34.7558C106.86 35.3742 106.358 35.8755 105.74 35.8755H104.189C103.571 35.8755 103.069 35.3742 103.069 34.7558V28.1406L100.571 35.0772C100.411 35.5214 99.9895 35.8175 99.5174 35.8175H98.405C97.932 35.8175 97.51 35.5202 97.3507 35.0749L94.8704 28.1406V34.7558C94.8704 35.3742 94.3692 35.8755 93.7508 35.8755H92.2Z" fill="#0F0F0F"/>
<path d="M109.82 35.8755C109.044 35.8755 108.504 35.1058 108.767 34.376L112.91 22.8859C113.07 22.4419 113.491 22.146 113.963 22.146H116.702C117.174 22.146 117.595 22.4419 117.755 22.8859L121.898 34.376C122.161 35.1058 121.621 35.8755 120.845 35.8755H119.372C118.893 35.8755 118.467 35.5711 118.313 35.118L117.798 33.613H112.848L112.333 35.118C112.178 35.5711 111.752 35.8755 111.274 35.8755H109.82ZM113.853 30.6737H116.812L115.342 26.3229L113.853 30.6737Z" fill="#0F0F0F"/>
</svg>
